<?xml version="1.0" standalone="no"?>
<!DOCTYPE svg PUBLIC "-//W3C//DTD SVG 1.1//EN" "http://www.w3.org/Graphics/SVG/1.1/DTD/svg11.dtd">
<svg xmlns="http://www.w3.org/2000/svg" width="224" height="138" viewBox="0 0 224 138" fill="none">
<g filter="url(#filter0_d_278_5412)">
<path d="M44.5807 129.624C43.6832 129.25 43.2256 128.54 43.271 127.592C43.3088 126.805 43.5781 126.444 46.6955 123.007C49.1948 120.251 53.2471 116.795 56.3958 114.735C60.2505 112.212 62.7105 111.193 68.5791 109.686C78.2166 107.212 85.1749 106.472 94.2347 106.956C101.683 107.354 106.982 107.041 109.341 106.065C111.386 105.218 113.076 103.929 114.568 102.077C115.671 100.707 116.552 98.1503 117.338 94.0363C118.061 90.2489 118.181 85.2834 117.593 83.493L117.335 82.7086L116.925 82.3667C116.007 81.6022 115.732 81.4449 115.023 81.2784C113.796 80.9904 112.247 80.8011 109.916 80.6545C103.408 80.2452 100.716 79.4353 97.5797 76.943C94.8032 74.7368 91.5223 70.1964 88.9678 65.0249C88.5564 64.1919 88.1852 63.4954 88.1429 63.477C88.0407 63.4326 84.1212 63.5458 83.1868 63.6201C82.7817 63.6523 81.9117 63.7264 81.2534 63.7848C79.5149 63.939 75.7553 63.9434 74.9133 63.7925C70.9365 63.0784 68.8688 61.5538 67.1037 58.0343C64.9695 53.7787 63.4578 47.483 62.2268 37.7232C61.7581 34.0065 61.5798 32.6982 61.536 32.6545C61.5169 32.6353 61.0222 32.7304 60.4369 32.866C52.9606 34.5969 47.4068 35.0778 43.0087 34.375L42.787 34.3396L42.115 35.2489C39.261 39.111 38.5915 40.345 37.9251 42.971C37.6624 44.0061 37.6631 44.0095 38.1975 44.2759C39.2722 44.8115 42.8676 44.9795 46.503 44.664C48.3142 44.5068 48.51 44.5255 49.0869 44.9107C50.4301 45.8077 50.2682 47.7765 48.7958 48.4505C48.0749 48.7806 42.4428 49.0309 40.1092 48.8367C36.5342 48.539 34.4536 47.2683 33.7194 44.9339C33.4928 44.2135 33.626 43.0633 34.1457 41.2525C34.8728 38.7192 35.6201 37.2785 37.7826 34.2419C38.3911 33.3873 38.4066 33.3385 38.0894 33.2717C37.1507 33.074 34.2996 32.2315 33.9203 32.0397C32.4476 31.2952 32.4825 29.1145 33.9788 28.3884C34.5179 28.1268 35.0372 28.1496 36.1452 28.4834C37.348 28.8459 40.9253 29.8056 41.0736 29.8056C41.0896 29.8056 41.5246 29.2601 42.0402 28.5934C42.5557 27.9267 43.2019 27.0912 43.476 26.7367C44.3299 25.6328 46.505 22.8078 47.4041 21.6348C51.1767 16.7135 54.3433 12.7736 55.7639 11.2336C58.0947 8.7067 60.0884 8.38145 61.3392 10.324C62.0419 11.4154 62.3336 12.0807 62.6215 13.2488C62.8317 14.1019 62.9089 14.547 63.3636 17.5302C63.8388 20.6483 64.4438 24.432 64.6494 25.5706C64.7682 26.2288 64.8659 26.8227 64.8666 26.8902C64.8672 26.9577 64.8911 27.0495 64.9193 27.0942C65.0062 27.2313 66.3997 26.6 68.9474 25.2694C71.8325 23.7626 72.0856 23.6938 72.9819 24.1715C74.6124 25.0405 74.4261 27.0511 72.6299 27.9709C72.3261 28.1264 71.3319 28.6431 70.4205 29.1191C68.684 30.0259 67.7087 30.4856 66.3542 31.0357C65.9069 31.2173 65.541 31.3958 65.541 31.4324C65.541 31.4689 65.6365 32.1881 65.7532 33.0306C65.8698 33.873 66.1055 35.6947 66.2768 37.0788C67.3964 46.1212 68.7834 52.0944 70.6668 55.9828C72.4093 59.5807 74.3689 60.2573 81.3149 59.6593C81.9056 59.6085 82.7204 59.5402 83.1255 59.5075C84.9617 59.3594 89.3004 59.3606 89.7899 59.5097C90.7673 59.8066 91.1668 60.1449 91.5683 61.0161C94.1713 66.6628 97.2828 71.3487 99.8779 73.5303C102.408 75.6575 104.423 76.2243 110.806 76.6054C113.665 76.776 116.341 77.2452 117.45 77.77C118.635 78.3306 120.515 79.9185 120.902 80.6854C121.138 81.1532 121.781 83.0854 121.894 83.6642C122.009 84.2583 122.012 90.0793 121.897 91.1829C121.344 96.5189 119.759 102.006 118.154 104.14C115.756 107.33 112.297 109.713 108.977 110.462C105.682 111.204 101.252 111.402 95.0013 111.086C92.4528 110.957 86.0928 110.939 84.5058 111.056C78.9003 111.471 72.6786 112.665 66.4917 114.512C61.8864 115.886 58.7855 117.674 53.9389 121.748C51.5573 123.75 50.0725 125.268 47.0966 128.745C46.3295 129.642 45.3998 129.967 44.5802 129.625L44.5807 129.624ZM49.2147 30.5396C50.492 30.4501 52.716 30.1956 53.7873 30.0164C55.6722 29.7011 59.699 28.8629 60.7075 28.5761C60.9981 28.4934 60.9979 28.52 60.7219 26.9507C60.4148 25.2045 59.9813 22.5043 59.3734 18.5507C58.8646 15.2421 58.7013 14.2911 58.6296 14.2194C58.6111 14.2009 58.5221 14.2722 58.4318 14.378C56.3479 16.8205 53.784 20.0444 49.9512 25.0418C48.9216 26.3842 47.5504 28.164 46.9041 28.9968L45.729 30.5112L46.0448 30.5472C46.5859 30.6089 48.2839 30.6048 49.2147 30.5395L49.2147 30.5396ZM12.6033 70.5276C9.21946 70.2339 5.87352 69.5284 5.10906 68.9474C3.62333 67.8182 4.33134 65.4251 6.18921 65.2963C6.52522 65.273 6.75367 65.3133 7.6321 65.55C11.4758 66.5862 16.1763 66.8392 20.1834 66.2256C22.9176 65.8069 24.9713 65.28 30.5561 63.5642C34.0205 62.4999 34.7707 62.2883 37.0928 61.7208C40.4945 60.8895 40.6319 60.872 41.3088 61.1841C42.7451 61.8462 42.911 63.8339 41.6039 64.7202C41.3081 64.9208 41.0247 65.0051 39.3023 65.4042C37.5939 65.8002 35.417 66.3654 34.3004 66.7031C33.7432 66.8716 32.2102 67.3406 30.8937 67.7453C25.3468 69.4506 22.4898 70.1226 19.1707 70.5026C18.2104 70.6126 13.7767 70.6294 12.6033 70.5275V70.5276Z" fill="#0024D0"/>
<path d="M98.6327 46.2421H94.4639V43.6477C93.2665 44.6825 92.0174 45.4881 90.7165 46.0647C89.4156 46.6412 88.0038 46.9295 86.4812 46.9295C83.5246 46.9295 81.1741 45.7912 79.4297 43.5146C77.7001 41.2381 76.8353 38.0819 76.8353 34.0462C76.8353 31.947 77.131 30.077 77.7223 28.4361C78.3284 26.7952 79.1415 25.3982 80.1615 24.2451C81.1667 23.1216 82.3346 22.2642 83.665 21.6729C85.0103 21.0816 86.3999 20.7859 87.8338 20.7859C89.1347 20.7859 90.2878 20.9263 91.293 21.2072C92.2982 21.4733 93.3552 21.8946 94.4639 22.4712V11.7388H98.6327V46.2421ZM94.4639 40.1441V25.9304C93.3404 25.4277 92.3352 25.0803 91.4482 24.8882C90.5613 24.696 89.593 24.5999 88.5434 24.5999C86.2077 24.5999 84.3894 25.413 83.0885 27.0391C81.7876 28.6652 81.1372 30.9713 81.1372 33.9575C81.1372 36.8993 81.6398 39.1389 82.645 40.6763C83.6502 42.1989 85.2616 42.9603 87.479 42.9603C88.6617 42.9603 89.8591 42.7016 91.0713 42.1842C92.2835 41.652 93.4144 40.972 94.4639 40.1441ZM127.947 33.8688C127.947 37.9045 126.912 41.0902 124.843 43.4259C122.773 45.7616 120.001 46.9295 116.527 46.9295C113.024 46.9295 110.237 45.7616 108.168 43.4259C106.113 41.0902 105.085 37.9045 105.085 33.8688C105.085 29.833 106.113 26.6473 108.168 24.3116C110.237 21.9611 113.024 20.7859 116.527 20.7859C120.001 20.7859 122.773 21.9611 124.843 24.3116C126.912 26.6473 127.947 29.833 127.947 33.8688ZM123.645 33.8688C123.645 30.6609 123.017 28.2808 121.761 26.7286C120.504 25.1616 118.76 24.3781 116.527 24.3781C114.266 24.3781 112.506 25.1616 111.25 26.7286C110.008 28.2808 109.387 30.6609 109.387 33.8688C109.387 36.9732 110.016 39.3311 111.272 40.9424C112.529 42.5389 114.28 43.3372 116.527 43.3372C118.745 43.3372 120.482 42.5463 121.738 40.9646C123.01 39.368 123.645 37.0028 123.645 33.8688ZM156.22 33.5583C156.22 35.5688 155.931 37.4093 155.355 39.0797C154.778 40.7354 153.965 42.1398 152.916 43.2929C151.94 44.3868 150.787 45.2368 149.456 45.8429C148.141 46.4342 146.744 46.7299 145.265 46.7299C143.979 46.7299 142.811 46.5895 141.762 46.3086C140.727 46.0277 139.67 45.5916 138.591 45.0003V55.3779H134.422V21.4733H138.591V24.0677C139.7 23.1364 140.941 22.3603 142.316 21.7394C143.706 21.1037 145.184 20.7859 146.751 20.7859C149.737 20.7859 152.058 21.9168 153.714 24.1786C155.384 26.4256 156.22 29.5522 156.22 33.5583ZM151.918 33.6692C151.918 30.6831 151.408 28.4508 150.388 26.9725C149.368 25.4943 147.801 24.7551 145.687 24.7551C144.489 24.7551 143.284 25.0138 142.072 25.5312C140.86 26.0486 139.7 26.7286 138.591 27.5713V41.6076C139.774 42.1398 140.786 42.502 141.629 42.6942C142.486 42.8863 143.454 42.9824 144.534 42.9824C146.855 42.9824 148.665 42.1989 149.966 40.632C151.267 39.065 151.918 36.744 151.918 33.6692ZM183.45 34.2901H165.2C165.2 35.8127 165.429 37.1432 165.888 38.2815C166.346 39.405 166.974 40.3289 167.772 41.0533C168.541 41.7628 169.45 42.295 170.5 42.6498C171.564 43.0046 172.732 43.182 174.003 43.182C175.689 43.182 177.381 42.8494 179.081 42.1842C180.796 41.5041 182.016 40.8389 182.74 40.1885H182.962V44.7342C181.557 45.3255 180.123 45.8208 178.66 46.2199C177.196 46.619 175.659 46.8186 174.048 46.8186C169.938 46.8186 166.73 45.7099 164.424 43.4924C162.118 41.2602 160.965 38.0967 160.965 34.0018C160.965 29.9513 162.066 26.736 164.269 24.356C166.486 21.9759 169.398 20.7859 173.006 20.7859C176.346 20.7859 178.919 21.7616 180.722 23.7129C182.54 25.6643 183.45 28.4361 183.45 32.0283V34.2901ZM179.392 31.097C179.377 28.9091 178.823 27.2165 177.729 26.0191C176.65 24.8216 175.001 24.2229 172.784 24.2229C170.552 24.2229 168.77 24.8808 167.44 26.1964C166.124 27.5121 165.378 29.1456 165.2 31.097H179.392ZM202.63 46.0203C201.847 46.2273 200.99 46.3973 200.058 46.5303C199.142 46.6634 198.321 46.7299 197.597 46.7299C195.069 46.7299 193.147 46.0499 191.832 44.6899C190.516 43.3298 189.858 41.1494 189.858 38.1484V24.9769H187.042V21.4733H189.858V14.3553H194.027V21.4733H202.63V24.9769H194.027V36.2636C194.027 37.5645 194.056 38.5845 194.116 39.3237C194.175 40.048 194.382 40.728 194.736 41.3637C195.062 41.955 195.505 42.3911 196.067 42.672C196.643 42.9381 197.516 43.0711 198.683 43.0711C199.363 43.0711 200.073 42.975 200.812 42.7829C201.551 42.5759 202.083 42.4059 202.409 42.2729H202.63V46.0203Z" fill="#00ACF4"/>
</g>
<defs>
<filter id="filter0_d_278_5412" x="0.307983" y="0.242065" width="227.692" height="137.516" filterUnits="userSpaceOnUse" color-interpolation-filters="sRGB">
<feFlood flood-opacity="0" result="BackgroundImageFix"/>
<feColorMatrix in="SourceAlpha" type="matrix" values="0 0 0 0 0 0 0 0 0 0 0 0 0 0 0 0 0 0 127 0" result="hardAlpha"/>
<feOffset dy="4"/>
<feGaussianBlur stdDeviation="2"/>
<feComposite in2="hardAlpha" operator="out"/>
<feColorMatrix type="matrix" values="0 0 0 0 0 0 0 0 0 0 0 0 0 0 0 0 0 0 0.25 0"/>
<feBlend mode="normal" in2="BackgroundImageFix" result="effect1_dropShadow_278_5412"/>
<feBlend mode="normal" in="SourceGraphic" in2="effect1_dropShadow_278_5412" result="shape"/>
</filter>
</defs>
</svg>